# xmcd
#
# Track frame offsets: 
#        150
#        744
#        22050
#        35573
#        41311
#        66584
#        81429
#        94466
#        96490
#        120849
#        122079
#        138626
#        141340
#        143475
#        164960
#        185288
#        186880
#        202871
#        205085
#        218926
#        220664
#        238971
#        250015
#
# Disc length: 3580 seconds
#
# Revision: 0
# Processed by: cddbd v1.5.2PL0 Copyright (c) Steve Scherf et al.
# Submitted via: ExactAudioCopy v1.0b3
#
DISCID=5f0dfa17
DTITLE=Różni wykonawcy - Okolice bluesa 100 % live      cd2
DYEAR=2013
DGENRE=Blues
TTITLE0=01.Wanted Friends - Zapowiedź
TTITLE1=02.Wanted Friends - Domowy blues
TTITLE2=03.Wanted Friend - Nobody Knows
TTITLE3=04.Hoodoo Band - Zapowiedź
TTITLE4=05.Hoodoo Band - Big Lag Woman
TTITLE5=06.Hoodoo Band - Stones In My Passway
TTITLE6=07 - Zapowiedź
TTITLE7=08.Webińska and Pawlina - Loui
TTITLE8=09.Joanna Pilarska and Jan Gałach - Zapowiedź
TTITLE9=10.Joanna Pilarska and Jan Gałach - Big Coloured Baloon
TTITLE10=11.Arek Zawaliński and Na drodze - Zapowiedź
TTITLE11=12.Arek Zawaliński and Na drodze - Wiedz
TTITLE12=13.Arek Zawaliński and Na drodze - po utworze
TTITLE13=14.Juicy Band - Zapowiedź +In Post
TTITLE14=15.Juicy Band - Bin Rider
TTITLE15=16.Adam Kulisz - Zapowiedź
TTITLE16=17.Adam Kulisz - Bukka White
TTITLE17=18.Jacek Jaguś  - Zapowiedź
TTITLE18=19.Jacek Jaguś - The House Of Rising Sun
TTITLE19=20.Outsider - Zapowiedź
TTITLE20=21.Outsider - Hoodoo Man
TTITLE21=22.Outsider - Tomorrow Night
TTITLE22=23.Beata Kossowska - After World
EXTD=
EXTT0=
EXTT1=
EXTT2=
EXTT3=
EXTT4=
EXTT5=
EXTT6=
EXTT7=
EXTT8=
EXTT9=
EXTT10=
EXTT11=
EXTT12=
EXTT13=
EXTT14=
EXTT15=
EXTT16=
EXTT17=
EXTT18=
EXTT19=
EXTT20=
EXTT21=
EXTT22=
PLAYORDER=
